<mxfile host="app.diagrams.net" modified="2021-09-15T18:45:25.110Z" agent="5.0 (Windows NT 10.0; Win64; x64) AppleWebKit/537.36 (KHTML, like Gecko) Chrome/93.0.4577.63 Safari/537.36" etag="LdspZcuSj5UY8SuBGimQ" version="15.2.7" type="github">
  <diagram id="2gcb0uk2k8buvxRNlrto" name="Page-1">
    <mxGraphModel dx="1117" dy="623" grid="1" gridSize="10" guides="1" tooltips="1" connect="1" arrows="1" fold="1" page="1" pageScale="1" pageWidth="827" pageHeight="1169" math="0" shadow="0">
      <root>
        <mxCell id="0" />
        <mxCell id="1" parent="0" />
        <mxCell id="9sUTM3JE2CXEn6ZBzU4v-1" value="C_Button : public sf::RectangleShape" style="swimlane;fontStyle=1;align=center;verticalAlign=top;childLayout=stackLayout;horizontal=1;startSize=26;horizontalStack=0;resizeParent=1;resizeParentMax=0;resizeLast=0;collapsible=1;marginBottom=0;fillColor=#6d8764;strokeColor=#3A5431;fontColor=#ffffff;" vertex="1" parent="1">
          <mxGeometry x="2" y="70" width="412" height="112" as="geometry" />
        </mxCell>
        <mxCell id="9sUTM3JE2CXEn6ZBzU4v-2" value="- _value: char*" style="text;strokeColor=#82b366;fillColor=#d5e8d4;align=left;verticalAlign=top;spacingLeft=4;spacingRight=4;overflow=hidden;rotatable=0;points=[[0,0.5],[1,0.5]];portConstraint=eastwest;" vertex="1" parent="9sUTM3JE2CXEn6ZBzU4v-1">
          <mxGeometry y="26" width="412" height="26" as="geometry" />
        </mxCell>
        <mxCell id="9sUTM3JE2CXEn6ZBzU4v-3" value="" style="line;strokeWidth=1;fillColor=none;align=left;verticalAlign=middle;spacingTop=-1;spacingLeft=3;spacingRight=3;rotatable=0;labelPosition=right;points=[];portConstraint=eastwest;" vertex="1" parent="9sUTM3JE2CXEn6ZBzU4v-1">
          <mxGeometry y="52" width="412" height="8" as="geometry" />
        </mxCell>
        <mxCell id="9sUTM3JE2CXEn6ZBzU4v-4" value="+ C_Button(float, float, float, float, char) : base(Vector2f(float, float))" style="text;strokeColor=#82b366;fillColor=#d5e8d4;align=left;verticalAlign=top;spacingLeft=4;spacingRight=4;overflow=hidden;rotatable=0;points=[[0,0.5],[1,0.5]];portConstraint=eastwest;" vertex="1" parent="9sUTM3JE2CXEn6ZBzU4v-1">
          <mxGeometry y="60" width="412" height="26" as="geometry" />
        </mxCell>
        <mxCell id="9sUTM3JE2CXEn6ZBzU4v-15" value="+ ~C_Button()" style="text;strokeColor=#82b366;fillColor=#d5e8d4;align=left;verticalAlign=top;spacingLeft=4;spacingRight=4;overflow=hidden;rotatable=0;points=[[0,0.5],[1,0.5]];portConstraint=eastwest;" vertex="1" parent="9sUTM3JE2CXEn6ZBzU4v-1">
          <mxGeometry y="86" width="412" height="26" as="geometry" />
        </mxCell>
        <mxCell id="9sUTM3JE2CXEn6ZBzU4v-5" value="C_Fuel_Calc_Values" style="swimlane;fontStyle=1;align=center;verticalAlign=top;childLayout=stackLayout;horizontal=1;startSize=26;horizontalStack=0;resizeParent=1;resizeParentMax=0;resizeLast=0;collapsible=1;marginBottom=0;fillColor=#6d8764;strokeColor=#3A5431;fontColor=#ffffff;" vertex="1" parent="1">
          <mxGeometry x="480" y="60" width="300" height="138" as="geometry" />
        </mxCell>
        <mxCell id="9sUTM3JE2CXEn6ZBzU4v-6" value="- _fuel: float*" style="text;strokeColor=#82b366;fillColor=#d5e8d4;align=left;verticalAlign=top;spacingLeft=4;spacingRight=4;overflow=hidden;rotatable=0;points=[[0,0.5],[1,0.5]];portConstraint=eastwest;" vertex="1" parent="9sUTM3JE2CXEn6ZBzU4v-5">
          <mxGeometry y="26" width="300" height="26" as="geometry" />
        </mxCell>
        <mxCell id="9sUTM3JE2CXEn6ZBzU4v-9" value="- _way: float*" style="text;strokeColor=#82b366;fillColor=#d5e8d4;align=left;verticalAlign=top;spacingLeft=4;spacingRight=4;overflow=hidden;rotatable=0;points=[[0,0.5],[1,0.5]];portConstraint=eastwest;" vertex="1" parent="9sUTM3JE2CXEn6ZBzU4v-5">
          <mxGeometry y="52" width="300" height="26" as="geometry" />
        </mxCell>
        <mxCell id="9sUTM3JE2CXEn6ZBzU4v-7" value="" style="line;strokeWidth=1;fillColor=none;align=left;verticalAlign=middle;spacingTop=-1;spacingLeft=3;spacingRight=3;rotatable=0;labelPosition=right;points=[];portConstraint=eastwest;" vertex="1" parent="9sUTM3JE2CXEn6ZBzU4v-5">
          <mxGeometry y="78" width="300" height="8" as="geometry" />
        </mxCell>
        <mxCell id="9sUTM3JE2CXEn6ZBzU4v-8" value="+ C_Fuel_Calc(float, float)" style="text;strokeColor=#82b366;fillColor=#d5e8d4;align=left;verticalAlign=top;spacingLeft=4;spacingRight=4;overflow=hidden;rotatable=0;points=[[0,0.5],[1,0.5]];portConstraint=eastwest;" vertex="1" parent="9sUTM3JE2CXEn6ZBzU4v-5">
          <mxGeometry y="86" width="300" height="26" as="geometry" />
        </mxCell>
        <mxCell id="9sUTM3JE2CXEn6ZBzU4v-14" value="+ ~C_Fuel_Calc()" style="text;strokeColor=#82b366;fillColor=#d5e8d4;align=left;verticalAlign=top;spacingLeft=4;spacingRight=4;overflow=hidden;rotatable=0;points=[[0,0.5],[1,0.5]];portConstraint=eastwest;" vertex="1" parent="9sUTM3JE2CXEn6ZBzU4v-5">
          <mxGeometry y="112" width="300" height="26" as="geometry" />
        </mxCell>
        <mxCell id="9sUTM3JE2CXEn6ZBzU4v-10" value="C_Fuel_Calc" style="swimlane;fontStyle=1;align=center;verticalAlign=top;childLayout=stackLayout;horizontal=1;startSize=26;horizontalStack=0;resizeParent=1;resizeParentMax=0;resizeLast=0;collapsible=1;marginBottom=0;fillColor=#6d8764;strokeColor=#3A5431;fontColor=#ffffff;" vertex="1" parent="1">
          <mxGeometry x="515" y="270" width="230" height="60" as="geometry" />
        </mxCell>
        <mxCell id="9sUTM3JE2CXEn6ZBzU4v-12" value="" style="line;strokeWidth=1;fillColor=none;align=left;verticalAlign=middle;spacingTop=-1;spacingLeft=3;spacingRight=3;rotatable=0;labelPosition=right;points=[];portConstraint=eastwest;" vertex="1" parent="9sUTM3JE2CXEn6ZBzU4v-10">
          <mxGeometry y="26" width="230" height="8" as="geometry" />
        </mxCell>
        <mxCell id="9sUTM3JE2CXEn6ZBzU4v-13" value="+ calculate(C_Fuel_Calc_Values&amp;): float" style="text;strokeColor=#314354;fillColor=#647687;align=left;verticalAlign=top;spacingLeft=4;spacingRight=4;overflow=hidden;rotatable=0;points=[[0,0.5],[1,0.5]];portConstraint=eastwest;fontColor=#ffffff;" vertex="1" parent="9sUTM3JE2CXEn6ZBzU4v-10">
          <mxGeometry y="34" width="230" height="26" as="geometry" />
        </mxCell>
        <mxCell id="9sUTM3JE2CXEn6ZBzU4v-16" value="" style="endArrow=diamondThin;endFill=1;endSize=24;html=1;exitX=0.5;exitY=0;exitDx=0;exitDy=0;" edge="1" parent="1" source="9sUTM3JE2CXEn6ZBzU4v-10" target="9sUTM3JE2CXEn6ZBzU4v-14">
          <mxGeometry width="160" relative="1" as="geometry">
            <mxPoint x="310" y="230" as="sourcePoint" />
            <mxPoint x="470" y="230" as="targetPoint" />
          </mxGeometry>
        </mxCell>
      </root>
    </mxGraphModel>
  </diagram>
</mxfile>
